<svg width="41" height="29" viewBox="0 0 41 29" fill="none" xmlns="http://www.w3.org/2000/svg">
<path d="M11.5 7H12.8392L12.9886 5.68516C12.9888 5.68412 12.989 5.68292 12.9892 5.68156C12.9916 5.66723 12.9971 5.63566 13.0074 5.58932C13.0281 5.49629 13.0673 5.34619 13.1365 5.15795C13.275 4.78085 13.5296 4.26196 13.9882 3.73776C14.8634 2.73754 16.675 1.5 20.5 1.5C24.325 1.5 26.1366 2.73754 27.0118 3.73776C27.4704 4.26196 27.725 4.78085 27.8635 5.15795C27.9327 5.34619 27.9719 5.49629 27.9926 5.58932C28.0029 5.63566 28.0084 5.66723 28.0108 5.68156C28.011 5.68292 28.0112 5.68411 28.0114 5.68515L28.1608 7H29.5H33.5C34.8807 7 36 8.11929 36 9.5V24.5C36 25.8807 34.8807 27 33.5 27H7.5C6.11929 27 5 25.8807 5 24.5V9.5C5 8.11929 6.11929 7 7.5 7H11.5Z" stroke="white" stroke-width="3"/>
<circle cx="20.5" cy="16.5" r="4.5" stroke="white" stroke-width="3"/>
<path d="M33.9603 14.8477C33.3239 14.3173 32.378 14.4033 31.8477 15.0397C31.3173 15.6761 31.4033 16.622 32.0397 17.1523L33.9603 14.8477ZM36 18.5L35.0397 19.6523L36 20.4526L36.9603 19.6523L36 18.5ZM39.9603 17.1523C40.5967 16.622 40.6827 15.6761 40.1523 15.0397C39.622 14.4033 38.6761 14.3173 38.0397 14.8477L39.9603 17.1523ZM32.0397 17.1523L35.0397 19.6523L36.9603 17.3477L33.9603 14.8477L32.0397 17.1523ZM36.9603 19.6523L39.9603 17.1523L38.0397 14.8477L35.0397 17.3477L36.9603 19.6523Z" fill="white"/>
<path d="M7.03972 19.6523C7.67614 20.1827 8.62199 20.0967 9.15233 19.4603C9.68268 18.8239 9.59669 17.878 8.96028 17.3477L7.03972 19.6523ZM5 16L5.96028 14.8477L5 14.0474L4.03972 14.8477L5 16ZM1.03972 17.3477C0.403308 17.878 0.317322 18.8239 0.847668 19.4603C1.37801 20.0967 2.32386 20.1827 2.96028 19.6523L1.03972 17.3477ZM8.96028 17.3477L5.96028 14.8477L4.03972 17.1523L7.03972 19.6523L8.96028 17.3477ZM4.03972 14.8477L1.03972 17.3477L2.96028 19.6523L5.96028 17.1523L4.03972 14.8477Z" fill="white"/>
</svg>
